<mxfile host="app.diagrams.net" modified="2022-12-09T14:32:57.218Z" agent="5.0 (Windows NT 10.0; Win64; x64) AppleWebKit/537.36 (KHTML, like Gecko) Chrome/108.0.0.0 Safari/537.36" etag="Uc3SHZ9kc8hLNeicc4so" version="20.6.2" type="github">
  <diagram name="Page-1" id="52a04d89-c75d-2922-d76d-85b35f80e030">
    <mxGraphModel dx="1887" dy="1038" grid="1" gridSize="10" guides="1" tooltips="1" connect="1" arrows="1" fold="1" page="1" pageScale="1" pageWidth="1100" pageHeight="850" math="0" shadow="0">
      <root>
        <mxCell id="0" />
        <mxCell id="1" parent="0" />
        <mxCell id="1E05wzdsz2HgL3BzRdNG-12" value="&lt;h1 style=&quot;font-size: 16px;&quot;&gt;VIDEO_PROFILE&lt;/h1&gt;" style="text;html=1;strokeColor=none;fillColor=none;align=center;verticalAlign=middle;whiteSpace=wrap;rounded=0;fontSize=16;horizontal=1;" vertex="1" parent="1">
          <mxGeometry x="40" y="90" width="170" height="30" as="geometry" />
        </mxCell>
        <mxCell id="1E05wzdsz2HgL3BzRdNG-55" style="edgeStyle=orthogonalEdgeStyle;rounded=0;orthogonalLoop=1;jettySize=auto;html=1;fontSize=12;" edge="1" parent="1" source="1E05wzdsz2HgL3BzRdNG-14" target="1E05wzdsz2HgL3BzRdNG-28">
          <mxGeometry relative="1" as="geometry">
            <Array as="points">
              <mxPoint x="280" y="150" />
              <mxPoint x="345" y="150" />
            </Array>
          </mxGeometry>
        </mxCell>
        <mxCell id="1E05wzdsz2HgL3BzRdNG-57" style="edgeStyle=orthogonalEdgeStyle;rounded=0;orthogonalLoop=1;jettySize=auto;html=1;fontSize=12;entryX=0;entryY=0.5;entryDx=0;entryDy=0;" edge="1" parent="1" source="1E05wzdsz2HgL3BzRdNG-14" target="1E05wzdsz2HgL3BzRdNG-42">
          <mxGeometry relative="1" as="geometry">
            <mxPoint x="230" y="360" as="targetPoint" />
            <Array as="points">
              <mxPoint x="220" y="105" />
              <mxPoint x="220" y="345" />
            </Array>
          </mxGeometry>
        </mxCell>
        <mxCell id="1E05wzdsz2HgL3BzRdNG-61" style="edgeStyle=orthogonalEdgeStyle;rounded=0;orthogonalLoop=1;jettySize=auto;html=1;fontSize=12;" edge="1" parent="1" source="1E05wzdsz2HgL3BzRdNG-14" target="1E05wzdsz2HgL3BzRdNG-43">
          <mxGeometry relative="1" as="geometry">
            <Array as="points">
              <mxPoint x="230" y="120" />
              <mxPoint x="230" y="310" />
              <mxPoint x="340" y="310" />
            </Array>
          </mxGeometry>
        </mxCell>
        <mxCell id="1E05wzdsz2HgL3BzRdNG-62" style="edgeStyle=orthogonalEdgeStyle;rounded=0;orthogonalLoop=1;jettySize=auto;html=1;entryX=0;entryY=0.5;entryDx=0;entryDy=0;fontSize=12;" edge="1" parent="1" source="1E05wzdsz2HgL3BzRdNG-14" target="1E05wzdsz2HgL3BzRdNG-45">
          <mxGeometry relative="1" as="geometry">
            <Array as="points">
              <mxPoint x="210" y="90" />
              <mxPoint x="210" y="435" />
            </Array>
          </mxGeometry>
        </mxCell>
        <mxCell id="1E05wzdsz2HgL3BzRdNG-14" value="V_id" style="rounded=0;whiteSpace=wrap;html=1;fontStyle=0;fontSize=12;" vertex="1" parent="1">
          <mxGeometry x="240" y="85" width="70" height="40" as="geometry" />
        </mxCell>
        <mxCell id="1E05wzdsz2HgL3BzRdNG-16" value="V_keyword" style="whiteSpace=wrap;html=1;fontSize=12;rounded=0;fontStyle=0;" vertex="1" parent="1">
          <mxGeometry x="310" y="85" width="110" height="40" as="geometry" />
        </mxCell>
        <mxCell id="1E05wzdsz2HgL3BzRdNG-18" value="V_title" style="whiteSpace=wrap;html=1;fontSize=12;rounded=0;fontStyle=0;" vertex="1" parent="1">
          <mxGeometry x="420" y="85" width="80" height="40" as="geometry" />
        </mxCell>
        <mxCell id="1E05wzdsz2HgL3BzRdNG-21" value="V_commandcount" style="whiteSpace=wrap;html=1;fontSize=12;rounded=0;fontStyle=0;" vertex="1" parent="1">
          <mxGeometry x="500" y="85" width="160" height="40" as="geometry" />
        </mxCell>
        <mxCell id="1E05wzdsz2HgL3BzRdNG-22" value="V_ratingavg" style="whiteSpace=wrap;html=1;fontSize=12;rounded=0;fontStyle=0;" vertex="1" parent="1">
          <mxGeometry x="660" y="85" width="110" height="40" as="geometry" />
        </mxCell>
        <mxCell id="1E05wzdsz2HgL3BzRdNG-23" value="V_desp" style="whiteSpace=wrap;html=1;fontSize=12;rounded=0;fontStyle=0;" vertex="1" parent="1">
          <mxGeometry x="770" y="85" width="80" height="40" as="geometry" />
        </mxCell>
        <mxCell id="1E05wzdsz2HgL3BzRdNG-24" value="V_category" style="whiteSpace=wrap;html=1;fontSize=12;rounded=0;fontStyle=0;" vertex="1" parent="1">
          <mxGeometry x="850" y="85" width="110" height="40" as="geometry" />
        </mxCell>
        <mxCell id="1E05wzdsz2HgL3BzRdNG-25" value="V_updates" style="whiteSpace=wrap;html=1;fontSize=12;rounded=0;fontStyle=0;" vertex="1" parent="1">
          <mxGeometry x="960" y="85" width="100" height="40" as="geometry" />
        </mxCell>
        <mxCell id="1E05wzdsz2HgL3BzRdNG-26" value="&lt;h1 style=&quot;font-size: 16px;&quot;&gt;USER_VIDEO&lt;/h1&gt;" style="text;html=1;strokeColor=none;fillColor=none;align=center;verticalAlign=middle;whiteSpace=wrap;rounded=0;fontSize=16;horizontal=1;" vertex="1" parent="1">
          <mxGeometry x="40" y="165" width="170" height="30" as="geometry" />
        </mxCell>
        <mxCell id="1E05wzdsz2HgL3BzRdNG-27" value="User_id" style="rounded=0;whiteSpace=wrap;html=1;fontStyle=1;fontSize=12;" vertex="1" parent="1">
          <mxGeometry x="240" y="160" width="70" height="40" as="geometry" />
        </mxCell>
        <mxCell id="1E05wzdsz2HgL3BzRdNG-28" value="Video_id" style="rounded=0;whiteSpace=wrap;html=1;fontStyle=0;fontSize=12;" vertex="1" parent="1">
          <mxGeometry x="310" y="160" width="70" height="40" as="geometry" />
        </mxCell>
        <mxCell id="1E05wzdsz2HgL3BzRdNG-29" value="&lt;h1 style=&quot;font-size: 16px;&quot;&gt;USER_PROFILE&lt;/h1&gt;" style="text;html=1;strokeColor=none;fillColor=none;align=center;verticalAlign=middle;whiteSpace=wrap;rounded=0;fontSize=16;horizontal=1;" vertex="1" parent="1">
          <mxGeometry x="40" y="245" width="170" height="30" as="geometry" />
        </mxCell>
        <mxCell id="1E05wzdsz2HgL3BzRdNG-30" value="Subcount" style="rounded=0;whiteSpace=wrap;html=1;fontStyle=0;fontSize=12;" vertex="1" parent="1">
          <mxGeometry x="240" y="240" width="70" height="40" as="geometry" />
        </mxCell>
        <mxCell id="1E05wzdsz2HgL3BzRdNG-31" value="Viewcount" style="rounded=0;whiteSpace=wrap;html=1;fontStyle=0;fontSize=12;" vertex="1" parent="1">
          <mxGeometry x="310" y="240" width="80" height="40" as="geometry" />
        </mxCell>
        <mxCell id="1E05wzdsz2HgL3BzRdNG-32" value="Watchcount" style="rounded=0;whiteSpace=wrap;html=1;fontStyle=0;fontSize=12;" vertex="1" parent="1">
          <mxGeometry x="390" y="240" width="90" height="40" as="geometry" />
        </mxCell>
        <mxCell id="1E05wzdsz2HgL3BzRdNG-51" style="edgeStyle=orthogonalEdgeStyle;rounded=0;orthogonalLoop=1;jettySize=auto;html=1;fontSize=12;" edge="1" parent="1" source="1E05wzdsz2HgL3BzRdNG-33" target="1E05wzdsz2HgL3BzRdNG-14">
          <mxGeometry relative="1" as="geometry">
            <Array as="points">
              <mxPoint x="520" y="220" />
              <mxPoint x="390" y="220" />
              <mxPoint x="390" y="140" />
              <mxPoint x="290" y="140" />
            </Array>
          </mxGeometry>
        </mxCell>
        <mxCell id="1E05wzdsz2HgL3BzRdNG-52" style="edgeStyle=orthogonalEdgeStyle;rounded=0;orthogonalLoop=1;jettySize=auto;html=1;entryX=0.5;entryY=0;entryDx=0;entryDy=0;fontSize=12;" edge="1" parent="1" source="1E05wzdsz2HgL3BzRdNG-33" target="1E05wzdsz2HgL3BzRdNG-42">
          <mxGeometry relative="1" as="geometry">
            <Array as="points">
              <mxPoint x="525" y="290" />
              <mxPoint x="270" y="290" />
            </Array>
          </mxGeometry>
        </mxCell>
        <mxCell id="1E05wzdsz2HgL3BzRdNG-63" style="edgeStyle=orthogonalEdgeStyle;rounded=0;orthogonalLoop=1;jettySize=auto;html=1;entryX=0.5;entryY=1;entryDx=0;entryDy=0;fontSize=12;" edge="1" parent="1" source="1E05wzdsz2HgL3BzRdNG-33" target="1E05wzdsz2HgL3BzRdNG-27">
          <mxGeometry relative="1" as="geometry">
            <Array as="points">
              <mxPoint x="510" y="230" />
              <mxPoint x="275" y="230" />
            </Array>
          </mxGeometry>
        </mxCell>
        <mxCell id="1E05wzdsz2HgL3BzRdNG-33" value="User_id" style="rounded=0;whiteSpace=wrap;html=1;fontStyle=1;fontSize=12;" vertex="1" parent="1">
          <mxGeometry x="480" y="240" width="90" height="40" as="geometry" />
        </mxCell>
        <mxCell id="1E05wzdsz2HgL3BzRdNG-34" value="Desp" style="rounded=0;whiteSpace=wrap;html=1;fontStyle=0;fontSize=12;" vertex="1" parent="1">
          <mxGeometry x="570" y="240" width="60" height="40" as="geometry" />
        </mxCell>
        <mxCell id="1E05wzdsz2HgL3BzRdNG-35" value="Address" style="rounded=0;whiteSpace=wrap;html=1;fontStyle=0;fontSize=12;" vertex="1" parent="1">
          <mxGeometry x="630" y="240" width="60" height="40" as="geometry" />
        </mxCell>
        <mxCell id="1E05wzdsz2HgL3BzRdNG-36" value="Hobbies" style="rounded=0;whiteSpace=wrap;html=1;fontStyle=0;fontSize=12;" vertex="1" parent="1">
          <mxGeometry x="690" y="240" width="60" height="40" as="geometry" />
        </mxCell>
        <mxCell id="1E05wzdsz2HgL3BzRdNG-37" value="Gender" style="rounded=0;whiteSpace=wrap;html=1;fontStyle=0;fontSize=12;" vertex="1" parent="1">
          <mxGeometry x="750" y="240" width="60" height="40" as="geometry" />
        </mxCell>
        <mxCell id="1E05wzdsz2HgL3BzRdNG-38" value="Age" style="rounded=0;whiteSpace=wrap;html=1;fontStyle=0;fontSize=12;" vertex="1" parent="1">
          <mxGeometry x="810" y="240" width="60" height="40" as="geometry" />
        </mxCell>
        <mxCell id="1E05wzdsz2HgL3BzRdNG-39" value="Job" style="rounded=0;whiteSpace=wrap;html=1;fontStyle=0;fontSize=12;" vertex="1" parent="1">
          <mxGeometry x="870" y="240" width="50" height="40" as="geometry" />
        </mxCell>
        <mxCell id="1E05wzdsz2HgL3BzRdNG-40" value="School" style="rounded=0;whiteSpace=wrap;html=1;fontStyle=0;fontSize=12;" vertex="1" parent="1">
          <mxGeometry x="920" y="240" width="60" height="40" as="geometry" />
        </mxCell>
        <mxCell id="1E05wzdsz2HgL3BzRdNG-41" value="&lt;h1 style=&quot;font-size: 16px;&quot;&gt;VIDEO_COMMENTS&lt;/h1&gt;" style="text;html=1;strokeColor=none;fillColor=none;align=center;verticalAlign=middle;whiteSpace=wrap;rounded=0;fontSize=16;horizontal=1;" vertex="1" parent="1">
          <mxGeometry x="40" y="330" width="170" height="30" as="geometry" />
        </mxCell>
        <mxCell id="1E05wzdsz2HgL3BzRdNG-42" value="V_id" style="rounded=0;whiteSpace=wrap;html=1;fontStyle=1;fontSize=12;" vertex="1" parent="1">
          <mxGeometry x="240" y="325" width="60" height="40" as="geometry" />
        </mxCell>
        <mxCell id="1E05wzdsz2HgL3BzRdNG-43" value="Comment_id" style="rounded=0;whiteSpace=wrap;html=1;fontStyle=1;fontSize=12;" vertex="1" parent="1">
          <mxGeometry x="300" y="325" width="90" height="40" as="geometry" />
        </mxCell>
        <mxCell id="1E05wzdsz2HgL3BzRdNG-44" value="&lt;h1 style=&quot;font-size: 16px;&quot;&gt;COMMENTS&lt;/h1&gt;" style="text;html=1;strokeColor=none;fillColor=none;align=center;verticalAlign=middle;whiteSpace=wrap;rounded=0;fontSize=16;horizontal=1;" vertex="1" parent="1">
          <mxGeometry x="40" y="420" width="170" height="30" as="geometry" />
        </mxCell>
        <mxCell id="1E05wzdsz2HgL3BzRdNG-45" value="Comment_id" style="rounded=0;whiteSpace=wrap;html=1;fontStyle=1;fontSize=12;" vertex="1" parent="1">
          <mxGeometry x="240" y="415" width="80" height="40" as="geometry" />
        </mxCell>
        <mxCell id="1E05wzdsz2HgL3BzRdNG-46" value="Update" style="rounded=0;whiteSpace=wrap;html=1;fontStyle=0;fontSize=12;" vertex="1" parent="1">
          <mxGeometry x="320" y="415" width="70" height="40" as="geometry" />
        </mxCell>
      </root>
    </mxGraphModel>
  </diagram>
</mxfile>
